<?xml version="1.0" encoding="utf-8"?>
<!-- Generator: Adobe Illustrator 27.5.0, SVG Export Plug-In . SVG Version: 6.00 Build 0)  -->
<svg version="1.1" xmlns="http://www.w3.org/2000/svg" xmlns:xlink="http://www.w3.org/1999/xlink" x="0px" y="0px"
	 viewBox="0 0 750 500" style="enable-background:new 0 0 750 500;" xml:space="preserve">
<g id="BACKGROUND">
	<rect style="fill:#42B9A8;" width="750" height="500"/>
</g>
<g id="OBJECTS">
	<g>
		<defs>
			<rect id="SVGID_1_" width="750" height="500"/>
		</defs>
		<clipPath id="SVGID_00000031178450253291530530000013091888204551210127_">
			<use xlink:href="#SVGID_1_"  style="overflow:visible;"/>
		</clipPath>
		<g style="clip-path:url(#SVGID_00000031178450253291530530000013091888204551210127_);">
			<g>
				<g>
					
						<line style="fill:none;stroke:#005264;stroke-width:4.0748;stroke-miterlimit:10;" x1="166.496" y1="346.122" x2="179.448" y2="333.17"/>
					
						<line style="fill:none;stroke:#005264;stroke-width:4.0748;stroke-miterlimit:10;" x1="166.496" y1="333.17" x2="179.448" y2="346.122"/>
				</g>
				<g>
					
						<line style="fill:none;stroke:#005264;stroke-width:4.0748;stroke-miterlimit:10;" x1="194.853" y1="346.122" x2="207.805" y2="333.17"/>
					
						<line style="fill:none;stroke:#005264;stroke-width:4.0748;stroke-miterlimit:10;" x1="194.853" y1="333.17" x2="207.805" y2="346.122"/>
				</g>
				<g>
					
						<line style="fill:none;stroke:#005264;stroke-width:4.0748;stroke-miterlimit:10;" x1="223.21" y1="346.122" x2="236.162" y2="333.17"/>
					
						<line style="fill:none;stroke:#005264;stroke-width:4.0748;stroke-miterlimit:10;" x1="223.21" y1="333.17" x2="236.162" y2="346.122"/>
				</g>
			</g>
			<g>
				<g>
					
						<line style="fill:none;stroke:#005264;stroke-width:4.0748;stroke-miterlimit:10;" x1="677.299" y1="167.327" x2="690.251" y2="154.375"/>
					
						<line style="fill:none;stroke:#005264;stroke-width:4.0748;stroke-miterlimit:10;" x1="677.299" y1="154.375" x2="690.251" y2="167.327"/>
				</g>
				<g>
					
						<line style="fill:none;stroke:#005264;stroke-width:4.0748;stroke-miterlimit:10;" x1="705.656" y1="167.327" x2="718.608" y2="154.375"/>
					
						<line style="fill:none;stroke:#005264;stroke-width:4.0748;stroke-miterlimit:10;" x1="705.656" y1="154.375" x2="718.608" y2="167.327"/>
				</g>
				<g>
					
						<line style="fill:none;stroke:#005264;stroke-width:4.0748;stroke-miterlimit:10;" x1="734.014" y1="167.327" x2="746.965" y2="154.375"/>
					
						<line style="fill:none;stroke:#005264;stroke-width:4.0748;stroke-miterlimit:10;" x1="734.014" y1="154.375" x2="746.965" y2="167.327"/>
				</g>
			</g>
			<g>
				<g>
					<g>
						<circle style="fill:#FFFFFF;" cx="27.93" cy="487.416" r="2.825"/>
						<path style="fill:#FFFFFF;" d="M27.93,459.122c1.56,0,2.825,1.265,2.825,2.825c0,1.56-1.265,2.825-2.825,2.825
							c-1.56,0-2.825-1.265-2.825-2.825C25.104,460.387,26.369,459.122,27.93,459.122z"/>
						<path style="fill:#FFFFFF;" d="M27.93,433.653c1.56,0,2.825,1.265,2.825,2.825c0,1.56-1.265,2.825-2.825,2.825
							c-1.56,0-2.825-1.265-2.825-2.825C25.104,434.917,26.369,433.653,27.93,433.653z"/>
						<path style="fill:#FFFFFF;" d="M27.93,408.184c1.56,0,2.825,1.265,2.825,2.825c0,1.56-1.265,2.825-2.825,2.825
							c-1.56,0-2.825-1.265-2.825-2.825C25.104,409.448,26.369,408.184,27.93,408.184z"/>
						<circle style="fill:#FFFFFF;" cx="27.93" cy="385.539" r="2.825"/>
						<circle style="fill:#FFFFFF;" cx="27.93" cy="360.07" r="2.825"/>
					</g>
					<g>
						<circle style="fill:#FFFFFF;" cx="11.83" cy="487.416" r="2.825"/>
						<path style="fill:#FFFFFF;" d="M11.83,459.122c1.56,0,2.825,1.265,2.825,2.825c0,1.56-1.265,2.825-2.825,2.825
							c-1.56,0-2.825-1.265-2.825-2.825C9.005,460.387,10.269,459.122,11.83,459.122z"/>
						<path style="fill:#FFFFFF;" d="M11.83,433.653c1.56,0,2.825,1.265,2.825,2.825c0,1.56-1.265,2.825-2.825,2.825
							c-1.56,0-2.825-1.265-2.825-2.825C9.005,434.917,10.269,433.653,11.83,433.653z"/>
						<path style="fill:#FFFFFF;" d="M11.83,408.184c1.56,0,2.825,1.265,2.825,2.825c0,1.56-1.265,2.825-2.825,2.825
							c-1.56,0-2.825-1.265-2.825-2.825C9.005,409.448,10.269,408.184,11.83,408.184z"/>
						<circle style="fill:#FFFFFF;" cx="11.83" cy="385.539" r="2.825"/>
						<circle style="fill:#FFFFFF;" cx="11.83" cy="360.07" r="2.825"/>
					</g>
				</g>
				<g>
					<g>
						<circle style="fill:#FFFFFF;" cx="60.644" cy="487.416" r="2.825"/>
						<path style="fill:#FFFFFF;" d="M60.644,459.122c1.56,0,2.825,1.265,2.825,2.825c0,1.56-1.265,2.825-2.825,2.825
							c-1.56,0-2.825-1.265-2.825-2.825C57.819,460.387,59.084,459.122,60.644,459.122z"/>
						<path style="fill:#FFFFFF;" d="M60.644,433.653c1.56,0,2.825,1.265,2.825,2.825c0,1.56-1.265,2.825-2.825,2.825
							c-1.56,0-2.825-1.265-2.825-2.825C57.819,434.917,59.084,433.653,60.644,433.653z"/>
						<path style="fill:#FFFFFF;" d="M60.644,408.184c1.56,0,2.825,1.265,2.825,2.825c0,1.56-1.265,2.825-2.825,2.825
							c-1.56,0-2.825-1.265-2.825-2.825C57.819,409.448,59.084,408.184,60.644,408.184z"/>
						<circle style="fill:#FFFFFF;" cx="60.644" cy="385.539" r="2.825"/>
						<circle style="fill:#FFFFFF;" cx="60.644" cy="360.07" r="2.825"/>
					</g>
					<g>
						<circle style="fill:#FFFFFF;" cx="44.544" cy="487.416" r="2.825"/>
						<path style="fill:#FFFFFF;" d="M44.544,459.122c1.56,0,2.825,1.265,2.825,2.825c0,1.56-1.265,2.825-2.825,2.825
							c-1.56,0-2.825-1.265-2.825-2.825C41.719,460.387,42.984,459.122,44.544,459.122z"/>
						<path style="fill:#FFFFFF;" d="M44.544,433.653c1.56,0,2.825,1.265,2.825,2.825c0,1.56-1.265,2.825-2.825,2.825
							c-1.56,0-2.825-1.265-2.825-2.825C41.719,434.917,42.984,433.653,44.544,433.653z"/>
						<path style="fill:#FFFFFF;" d="M44.544,408.184c1.56,0,2.825,1.265,2.825,2.825c0,1.56-1.265,2.825-2.825,2.825
							c-1.56,0-2.825-1.265-2.825-2.825C41.719,409.448,42.984,408.184,44.544,408.184z"/>
						<circle style="fill:#FFFFFF;" cx="44.544" cy="385.539" r="2.825"/>
						<circle style="fill:#FFFFFF;" cx="44.544" cy="360.07" r="2.825"/>
					</g>
				</g>
			</g>
			<g>
				<g>
					<g>
						<path style="fill:#FFFFFF;" d="M624.482,27.767c0,1.56-1.265,2.825-2.825,2.825c-1.56,0-2.825-1.265-2.825-2.825
							c0-1.56,1.265-2.825,2.825-2.825C623.218,24.942,624.482,26.207,624.482,27.767z"/>
						<path style="fill:#FFFFFF;" d="M649.952,27.767c0,1.56-1.265,2.825-2.825,2.825c-1.56,0-2.825-1.265-2.825-2.825
							c0-1.56,1.265-2.825,2.825-2.825C648.687,24.942,649.952,26.207,649.952,27.767z"/>
						<path style="fill:#FFFFFF;" d="M675.421,27.767c0,1.56-1.265,2.825-2.825,2.825c-1.56,0-2.825-1.265-2.825-2.825
							c0-1.56,1.265-2.825,2.825-2.825C674.156,24.942,675.421,26.207,675.421,27.767z"/>
						<path style="fill:#FFFFFF;" d="M700.89,27.767c0,1.56-1.265,2.825-2.825,2.825c-1.56,0-2.825-1.265-2.825-2.825
							c0-1.56,1.265-2.825,2.825-2.825C699.625,24.942,700.89,26.207,700.89,27.767z"/>
						<path style="fill:#FFFFFF;" d="M726.359,27.767c0,1.56-1.265,2.825-2.825,2.825c-1.56,0-2.825-1.265-2.825-2.825
							c0-1.56,1.265-2.825,2.825-2.825C725.094,24.942,726.359,26.207,726.359,27.767z"/>
						<path style="fill:#FFFFFF;" d="M751.828,27.767c0,1.56-1.265,2.825-2.825,2.825c-1.56,0-2.825-1.265-2.825-2.825
							c0-1.56,1.265-2.825,2.825-2.825C750.563,24.942,751.828,26.207,751.828,27.767z"/>
					</g>
					<g>
						<path style="fill:#FFFFFF;" d="M624.482,11.668c0,1.56-1.265,2.825-2.825,2.825c-1.56,0-2.825-1.265-2.825-2.825
							c0-1.56,1.265-2.825,2.825-2.825C623.218,8.842,624.482,10.107,624.482,11.668z"/>
						<path style="fill:#FFFFFF;" d="M649.952,11.668c0,1.56-1.265,2.825-2.825,2.825c-1.56,0-2.825-1.265-2.825-2.825
							c0-1.56,1.265-2.825,2.825-2.825C648.687,8.842,649.952,10.107,649.952,11.668z"/>
						<path style="fill:#FFFFFF;" d="M675.421,11.668c0,1.56-1.265,2.825-2.825,2.825c-1.56,0-2.825-1.265-2.825-2.825
							c0-1.56,1.265-2.825,2.825-2.825C674.156,8.842,675.421,10.107,675.421,11.668z"/>
						<path style="fill:#FFFFFF;" d="M700.89,11.668c0,1.56-1.265,2.825-2.825,2.825c-1.56,0-2.825-1.265-2.825-2.825
							c0-1.56,1.265-2.825,2.825-2.825C699.625,8.842,700.89,10.107,700.89,11.668z"/>
						<path style="fill:#FFFFFF;" d="M726.359,11.668c0,1.56-1.265,2.825-2.825,2.825c-1.56,0-2.825-1.265-2.825-2.825
							c0-1.56,1.265-2.825,2.825-2.825C725.094,8.842,726.359,10.107,726.359,11.668z"/>
						<path style="fill:#FFFFFF;" d="M751.828,11.668c0,1.56-1.265,2.825-2.825,2.825c-1.56,0-2.825-1.265-2.825-2.825
							c0-1.56,1.265-2.825,2.825-2.825C750.563,8.842,751.828,10.107,751.828,11.668z"/>
					</g>
				</g>
				<g>
					<g>
						<path style="fill:#FFFFFF;" d="M624.482,60.482c0,1.56-1.265,2.825-2.825,2.825c-1.56,0-2.825-1.265-2.825-2.825
							c0-1.56,1.265-2.825,2.825-2.825C623.218,57.657,624.482,58.922,624.482,60.482z"/>
						<circle style="fill:#FFFFFF;" cx="647.126" cy="60.482" r="2.825"/>
						<circle style="fill:#FFFFFF;" cx="672.596" cy="60.482" r="2.825"/>
						<circle style="fill:#FFFFFF;" cx="698.065" cy="60.482" r="2.825"/>
						<circle style="fill:#FFFFFF;" cx="723.534" cy="60.482" r="2.825"/>
						<path style="fill:#FFFFFF;" d="M751.828,60.482c0,1.56-1.265,2.825-2.825,2.825c-1.56,0-2.825-1.265-2.825-2.825
							c0-1.56,1.265-2.825,2.825-2.825C750.563,57.657,751.828,58.922,751.828,60.482z"/>
					</g>
					<g>
						<path style="fill:#FFFFFF;" d="M624.482,44.382c0,1.56-1.265,2.825-2.825,2.825c-1.56,0-2.825-1.265-2.825-2.825
							c0-1.56,1.265-2.825,2.825-2.825C623.218,41.557,624.482,42.822,624.482,44.382z"/>
						<path style="fill:#FFFFFF;" d="M649.952,44.382c0,1.56-1.265,2.825-2.825,2.825c-1.56,0-2.825-1.265-2.825-2.825
							c0-1.56,1.265-2.825,2.825-2.825C648.687,41.557,649.952,42.822,649.952,44.382z"/>
						<path style="fill:#FFFFFF;" d="M675.421,44.382c0,1.56-1.265,2.825-2.825,2.825c-1.56,0-2.825-1.265-2.825-2.825
							c0-1.56,1.265-2.825,2.825-2.825C674.156,41.557,675.421,42.822,675.421,44.382z"/>
						<path style="fill:#FFFFFF;" d="M700.89,44.382c0,1.56-1.265,2.825-2.825,2.825c-1.56,0-2.825-1.265-2.825-2.825
							c0-1.56,1.265-2.825,2.825-2.825C699.625,41.557,700.89,42.822,700.89,44.382z"/>
						<path style="fill:#FFFFFF;" d="M726.359,44.382c0,1.56-1.265,2.825-2.825,2.825c-1.56,0-2.825-1.265-2.825-2.825
							c0-1.56,1.265-2.825,2.825-2.825C725.094,41.557,726.359,42.822,726.359,44.382z"/>
						<path style="fill:#FFFFFF;" d="M751.828,44.382c0,1.56-1.265,2.825-2.825,2.825c-1.56,0-2.825-1.265-2.825-2.825
							c0-1.56,1.265-2.825,2.825-2.825C750.563,41.557,751.828,42.822,751.828,44.382z"/>
					</g>
				</g>
			</g>
			<g>
				<g>
					<g>
						<path style="fill:#FFFFFF;" d="M163.508,194.005c0,1.309-1.061,2.37-2.37,2.37c-1.309,0-2.37-1.061-2.37-2.37
							c0-1.309,1.061-2.37,2.37-2.37C162.447,191.635,163.508,192.696,163.508,194.005z"/>
						<circle style="fill:#FFFFFF;" cx="182.507" cy="194.005" r="2.37"/>
						<circle style="fill:#FFFFFF;" cx="203.876" cy="194.005" r="2.37"/>
						<circle style="fill:#FFFFFF;" cx="225.244" cy="194.005" r="2.37"/>
						<circle style="fill:#FFFFFF;" cx="246.614" cy="194.005" r="2.37"/>
						<circle style="fill:#FFFFFF;" cx="267.983" cy="194.005" r="2.37"/>
					</g>
					<g>
						<path style="fill:#FFFFFF;" d="M163.508,180.497c0,1.309-1.061,2.37-2.37,2.37c-1.309,0-2.37-1.061-2.37-2.37
							c0-1.309,1.061-2.37,2.37-2.37C162.447,178.126,163.508,179.188,163.508,180.497z"/>
						<circle style="fill:#FFFFFF;" cx="182.507" cy="180.497" r="2.37"/>
						<circle style="fill:#FFFFFF;" cx="203.876" cy="180.497" r="2.37"/>
						<circle style="fill:#FFFFFF;" cx="225.244" cy="180.497" r="2.37"/>
						<circle style="fill:#FFFFFF;" cx="246.614" cy="180.497" r="2.37"/>
						<circle style="fill:#FFFFFF;" cx="267.983" cy="180.497" r="2.37"/>
					</g>
				</g>
			</g>
			<g>
				<g>
					<g>
						<circle style="fill:#FFFFFF;" cx="483.135" cy="388.474" r="2.37"/>
						<circle style="fill:#FFFFFF;" cx="483.135" cy="409.843" r="2.37"/>
						<path style="fill:#FFFFFF;" d="M483.135,433.582c-1.309,0-2.37-1.061-2.37-2.37c0-1.309,1.061-2.37,2.37-2.37
							c1.309,0,2.37,1.061,2.37,2.37C485.505,432.521,484.444,433.582,483.135,433.582z"/>
						<circle style="fill:#FFFFFF;" cx="483.135" cy="452.581" r="2.37"/>
						<circle style="fill:#FFFFFF;" cx="483.135" cy="473.95" r="2.37"/>
						<circle style="fill:#FFFFFF;" cx="483.135" cy="495.319" r="2.37"/>
					</g>
					<g>
						<circle style="fill:#FFFFFF;" cx="496.643" cy="388.474" r="2.37"/>
						<circle style="fill:#FFFFFF;" cx="496.643" cy="409.843" r="2.37"/>
						<path style="fill:#FFFFFF;" d="M496.643,433.582c-1.309,0-2.37-1.061-2.37-2.37c0-1.309,1.061-2.37,2.37-2.37
							c1.309,0,2.37,1.061,2.37,2.37C499.013,432.521,497.952,433.582,496.643,433.582z"/>
						<circle style="fill:#FFFFFF;" cx="496.643" cy="452.581" r="2.37"/>
						<circle style="fill:#FFFFFF;" cx="496.643" cy="473.95" r="2.37"/>
						<circle style="fill:#FFFFFF;" cx="496.643" cy="495.319" r="2.37"/>
					</g>
				</g>
			</g>
			
				<ellipse transform="matrix(0.7071 -0.7071 0.7071 0.7071 -285.5863 279.7151)" style="fill:#005264;" cx="194.853" cy="484.591" rx="62.942" ry="62.942"/>
			
				<ellipse transform="matrix(0.9981 -0.0614 0.0614 0.9981 0.0173 2.2025)" style="fill:#005264;" cx="35.818" cy="0.819" rx="59.16" ry="59.16"/>
			<circle style="fill:#005264;" cx="734.767" cy="287.629" r="59.16"/>
			<circle style="fill:#005264;" cx="409.348" cy="396.699" r="20.007"/>
			<circle style="fill:none;stroke:#D2F5EF;stroke-width:2.0563;stroke-miterlimit:10;" cx="416.441" cy="398.657" r="20.007"/>
			<circle style="fill:#FED047;" cx="760.232" cy="504.472" r="54.576"/>
			<path style="fill:#FED047;" d="M-1.863,124.306c-34.758,0-62.945,28.187-62.945,62.945c0,34.758,28.187,62.945,62.945,62.945
				c34.768,0,62.945-28.187,62.945-62.945C61.082,152.493,32.905,124.306-1.863,124.306z M-1.863,217.475
				c-16.696,0-30.225-13.528-30.225-30.225s13.528-30.225,30.225-30.225s30.225,13.528,30.225,30.225S14.833,217.475-1.863,217.475z
				"/>
			<path style="fill:#FFFFFF;" d="M381.081,450.727c-34.758,0-62.945,28.187-62.945,62.945c0,34.758,28.187,62.945,62.945,62.945
				c34.768,0,62.945-28.187,62.945-62.945C444.026,478.914,415.849,450.727,381.081,450.727z M381.081,543.896
				c-16.696,0-30.225-13.528-30.225-30.225c0-16.696,13.528-30.225,30.225-30.225c16.696,0,30.225,13.528,30.225,30.225
				C411.306,530.368,397.777,543.896,381.081,543.896z"/>
			<path style="fill:#FFFFFF;" d="M359.708-51.063c-25.724,0-46.585,20.861-46.585,46.585s20.861,46.585,46.585,46.585
				c25.731,0,46.585-20.861,46.585-46.585S385.44-51.063,359.708-51.063z M359.708,17.891c-12.357,0-22.369-10.012-22.369-22.369
				c0-12.357,10.012-22.369,22.369-22.369c12.357,0,22.369,10.012,22.369,22.369C382.077,7.879,372.065,17.891,359.708,17.891z"/>
			<path style="fill:#FFFFFF;" d="M105.616,140.423c-6.484,0-11.742,5.258-11.742,11.742s5.258,11.742,11.742,11.742
				c6.486,0,11.742-5.258,11.742-11.742S112.102,140.423,105.616,140.423z M105.616,157.803c-3.115,0-5.638-2.524-5.638-5.638
				c0-3.115,2.524-5.638,5.638-5.638s5.638,2.524,5.638,5.638C111.254,155.279,108.73,157.803,105.616,157.803z"/>
			<path style="fill:#FFFFFF;" d="M513.171,78.472c-6.484,0-11.742,5.258-11.742,11.742s5.258,11.742,11.742,11.742
				c6.486,0,11.742-5.258,11.742-11.742S519.657,78.472,513.171,78.472z M513.171,95.852c-3.115,0-5.638-2.524-5.638-5.638
				s2.524-5.638,5.638-5.638c3.115,0,5.638,2.524,5.638,5.638S516.286,95.852,513.171,95.852z"/>
			<path style="fill:#FFFFFF;" d="M600.263,328.951c-15.624,0-28.294,12.67-28.294,28.294s12.67,28.294,28.294,28.294
				c15.629,0,28.294-12.67,28.294-28.294S615.892,328.951,600.263,328.951z M600.263,370.831c-7.505,0-13.586-6.081-13.586-13.586
				s6.081-13.586,13.586-13.586c7.505,0,13.586,6.081,13.586,13.586S607.768,370.831,600.263,370.831z"/>
			<circle style="fill:none;stroke:#D2F5EF;stroke-width:2.0563;stroke-miterlimit:10;" cx="226.784" cy="475.176" r="47.337"/>
			<g>
				<polygon style="fill:#FFFFFF;" points="290.711,490.88 301.716,490.88 295.509,481.997 				"/>
				<polygon style="fill:#FFFFFF;" points="290.711,474.552 301.716,474.552 295.509,465.669 				"/>
				<polygon style="fill:#FFFFFF;" points="290.711,458.224 301.716,458.224 295.509,449.341 				"/>
				<polygon style="fill:#FFFFFF;" points="290.711,441.897 301.716,441.897 295.509,433.013 				"/>
			</g>
			<g>
				<polygon style="fill:#FFFFFF;" points="30.315,70.768 41.32,70.768 35.112,61.884 				"/>
				<polygon style="fill:#FFFFFF;" points="30.315,54.44 41.32,54.44 35.112,45.557 				"/>
				<polygon style="fill:#FFFFFF;" points="30.315,38.112 41.32,38.112 35.112,29.229 				"/>
				<polygon style="fill:#FFFFFF;" points="30.315,21.785 41.32,21.785 35.112,12.901 				"/>
			</g>
			<g>
				<polygon style="fill:#FFFFFF;" points="729.264,251.871 740.269,251.871 734.061,242.988 				"/>
				<polygon style="fill:#FFFFFF;" points="729.264,235.544 740.269,235.544 734.061,226.66 				"/>
				<polygon style="fill:#FFFFFF;" points="729.264,219.216 740.269,219.216 734.061,210.333 				"/>
				<polygon style="fill:#FFFFFF;" points="729.264,202.888 740.269,202.888 734.061,194.005 				"/>
			</g>
			<rect x="106.529" y="357.245" style="fill:#FED047;" width="184.182" height="25.469"/>
			
				<rect x="131.89" y="35.159" transform="matrix(-1.836970e-16 1 -1 -1.836970e-16 279.2414 -136.3681)" style="fill:#FED047;" width="151.829" height="72.556"/>
			
				<rect x="147.106" y="34.372" transform="matrix(-1.836970e-16 1 -1 -1.836970e-16 304.132 -162.8327)" style="fill:none;stroke:#D2F5EF;stroke-width:2.0344;stroke-miterlimit:10;" width="172.753" height="72.556"/>
			
				<rect x="483.172" y="458.05" transform="matrix(-1.836970e-16 1 -1 -1.836970e-16 1053.4149 -64.7586)" style="fill:#FED047;" width="151.829" height="72.556"/>
			
				<rect x="498.388" y="457.263" transform="matrix(-1.836970e-16 1 -1 -1.836970e-16 1078.3057 -91.2232)" style="fill:none;stroke:#D2F5EF;stroke-width:2.0344;stroke-miterlimit:10;" width="172.753" height="72.556"/>
			
				<rect x="110.843" y="366.97" style="fill:none;stroke:#D2F5EF;stroke-width:2.0344;stroke-miterlimit:10;" width="199.23" height="25.469"/>
			
				<rect x="549.201" y="180.472" transform="matrix(-1.836970e-16 1 -1 -1.836970e-16 834.4988 -448.0849)" style="fill:#FED047;" width="184.182" height="25.469"/>
			
				<rect x="382.025" y="7.026" transform="matrix(6.123234e-17 -1 1 6.123234e-17 424.2657 463.7863)" style="fill:#005264;" width="124.002" height="25.469"/>
			
				<rect x="375.151" y="26.865" transform="matrix(6.123234e-17 -1 1 6.123234e-17 395.2226 474.4206)" style="fill:none;stroke:#D2F5EF;stroke-width:2.0344;stroke-miterlimit:10;" width="119.342" height="25.469"/>
			
				<rect x="531.952" y="192.311" transform="matrix(-1.836970e-16 1 -1 -1.836970e-16 836.612 -426.5218)" style="fill:none;stroke:#D2F5EF;stroke-width:2.0344;stroke-miterlimit:10;" width="199.231" height="25.469"/>
			<path style="fill:#FFFFFF;" d="M117.374,107.112H-11.877V78.215h126.125c4.38,0,8.763-0.535,12.948-1.827
				c17.777-5.487,30.69-22.038,30.69-41.619c0-23.029-17.872-41.871-40.511-43.437v-28.906c38.588,1.6,69.384,33.366,69.384,72.343
				C186.758,73.747,155.962,105.512,117.374,107.112z"/>
			<path style="fill:#FFFFFF;" d="M649.239,397.905v129.251h28.898V401.031c0-4.38,0.535-8.763,1.827-12.948
				c5.487-17.777,22.038-30.69,41.619-30.69c23.029,0,41.871,17.872,43.438,40.511h28.906c-1.6-38.588-33.366-69.384-72.343-69.384
				C682.605,328.521,650.839,359.317,649.239,397.905z"/>
			<g>
				<circle style="fill:none;stroke:#005264;stroke-width:3.9621;stroke-miterlimit:10;" cx="108.475" cy="268.442" r="38.504"/>
				<circle style="fill:none;stroke:#005264;stroke-width:3.9621;stroke-miterlimit:10;" cx="108.475" cy="268.442" r="19.188"/>
			</g>
			<g>
				
					<ellipse transform="matrix(0.0919 -0.9958 0.9958 0.0919 475.832 523.4337)" style="fill:none;stroke:#005264;stroke-width:3.9621;stroke-miterlimit:10;" cx="524.913" cy="0.819" rx="38.504" ry="38.504"/>
				
					<ellipse transform="matrix(0.0905 -0.9959 0.9959 0.0905 476.5972 523.505)" style="fill:none;stroke:#005264;stroke-width:3.9621;stroke-miterlimit:10;" cx="524.913" cy="0.819" rx="19.188" ry="19.188"/>
			</g>
			<g>
				
					<line style="fill:none;stroke:#D2F5EF;stroke-width:3.0045;stroke-linecap:round;stroke-linejoin:round;stroke-miterlimit:10;" x1="201.329" y1="261.556" x2="201.329" y2="256.019"/>
				
					<line style="fill:none;stroke:#D2F5EF;stroke-width:3.0045;stroke-linecap:round;stroke-linejoin:round;stroke-miterlimit:10;" x1="209.837" y1="265.08" x2="213.752" y2="261.165"/>
				
					<line style="fill:none;stroke:#D2F5EF;stroke-width:3.0045;stroke-linecap:round;stroke-linejoin:round;stroke-miterlimit:10;" x1="213.361" y1="273.587" x2="218.898" y2="273.587"/>
				
					<line style="fill:none;stroke:#D2F5EF;stroke-width:3.0045;stroke-linecap:round;stroke-linejoin:round;stroke-miterlimit:10;" x1="209.837" y1="282.095" x2="213.752" y2="286.01"/>
				
					<line style="fill:none;stroke:#D2F5EF;stroke-width:3.0045;stroke-linecap:round;stroke-linejoin:round;stroke-miterlimit:10;" x1="201.329" y1="285.62" x2="201.329" y2="291.156"/>
				
					<line style="fill:none;stroke:#D2F5EF;stroke-width:3.0045;stroke-linecap:round;stroke-linejoin:round;stroke-miterlimit:10;" x1="192.821" y1="282.095" x2="188.906" y2="286.01"/>
				
					<line style="fill:none;stroke:#D2F5EF;stroke-width:3.0045;stroke-linecap:round;stroke-linejoin:round;stroke-miterlimit:10;" x1="189.297" y1="273.587" x2="183.76" y2="273.587"/>
				
					<line style="fill:none;stroke:#D2F5EF;stroke-width:3.0045;stroke-linecap:round;stroke-linejoin:round;stroke-miterlimit:10;" x1="192.821" y1="265.08" x2="188.906" y2="261.165"/>
			</g>
			<g>
				
					<line style="fill:none;stroke:#D2F5EF;stroke-width:3.0045;stroke-linecap:round;stroke-linejoin:round;stroke-miterlimit:10;" x1="719.627" y1="395.133" x2="719.627" y2="389.596"/>
				
					<line style="fill:none;stroke:#D2F5EF;stroke-width:3.0045;stroke-linecap:round;stroke-linejoin:round;stroke-miterlimit:10;" x1="728.135" y1="398.657" x2="732.05" y2="394.742"/>
				
					<line style="fill:none;stroke:#D2F5EF;stroke-width:3.0045;stroke-linecap:round;stroke-linejoin:round;stroke-miterlimit:10;" x1="731.659" y1="407.165" x2="737.196" y2="407.165"/>
				
					<line style="fill:none;stroke:#D2F5EF;stroke-width:3.0045;stroke-linecap:round;stroke-linejoin:round;stroke-miterlimit:10;" x1="728.135" y1="415.673" x2="732.05" y2="419.588"/>
				
					<line style="fill:none;stroke:#D2F5EF;stroke-width:3.0045;stroke-linecap:round;stroke-linejoin:round;stroke-miterlimit:10;" x1="719.627" y1="419.197" x2="719.627" y2="424.733"/>
				
					<line style="fill:none;stroke:#D2F5EF;stroke-width:3.0045;stroke-linecap:round;stroke-linejoin:round;stroke-miterlimit:10;" x1="711.119" y1="415.673" x2="707.204" y2="419.588"/>
				
					<line style="fill:none;stroke:#D2F5EF;stroke-width:3.0045;stroke-linecap:round;stroke-linejoin:round;stroke-miterlimit:10;" x1="707.595" y1="407.165" x2="702.058" y2="407.165"/>
				
					<line style="fill:none;stroke:#D2F5EF;stroke-width:3.0045;stroke-linecap:round;stroke-linejoin:round;stroke-miterlimit:10;" x1="711.119" y1="398.657" x2="707.204" y2="394.742"/>
			</g>
			<g>
				
					<line style="fill:none;stroke:#D2F5EF;stroke-width:3.0045;stroke-linecap:round;stroke-linejoin:round;stroke-miterlimit:10;" x1="563.418" y1="162.563" x2="563.418" y2="157.026"/>
				
					<line style="fill:none;stroke:#D2F5EF;stroke-width:3.0045;stroke-linecap:round;stroke-linejoin:round;stroke-miterlimit:10;" x1="571.926" y1="166.087" x2="575.841" y2="162.172"/>
				
					<line style="fill:none;stroke:#D2F5EF;stroke-width:3.0045;stroke-linecap:round;stroke-linejoin:round;stroke-miterlimit:10;" x1="575.45" y1="174.595" x2="580.986" y2="174.595"/>
				
					<line style="fill:none;stroke:#D2F5EF;stroke-width:3.0045;stroke-linecap:round;stroke-linejoin:round;stroke-miterlimit:10;" x1="571.926" y1="183.103" x2="575.841" y2="187.018"/>
				
					<line style="fill:none;stroke:#D2F5EF;stroke-width:3.0045;stroke-linecap:round;stroke-linejoin:round;stroke-miterlimit:10;" x1="563.418" y1="186.627" x2="563.418" y2="192.163"/>
				
					<line style="fill:none;stroke:#D2F5EF;stroke-width:3.0045;stroke-linecap:round;stroke-linejoin:round;stroke-miterlimit:10;" x1="554.91" y1="183.103" x2="550.995" y2="187.018"/>
				
					<line style="fill:none;stroke:#D2F5EF;stroke-width:3.0045;stroke-linecap:round;stroke-linejoin:round;stroke-miterlimit:10;" x1="551.386" y1="174.595" x2="545.849" y2="174.595"/>
				
					<line style="fill:none;stroke:#D2F5EF;stroke-width:3.0045;stroke-linecap:round;stroke-linejoin:round;stroke-miterlimit:10;" x1="554.91" y1="166.087" x2="550.995" y2="162.172"/>
			</g>
			<g>
				
					<line style="fill:none;stroke:#D2F5EF;stroke-width:2.0563;stroke-linecap:round;stroke-linejoin:round;stroke-miterlimit:10;" x1="120.499" y1="30.191" x2="120.499" y2="26.402"/>
				
					<line style="fill:none;stroke:#D2F5EF;stroke-width:2.0563;stroke-linecap:round;stroke-linejoin:round;stroke-miterlimit:10;" x1="126.322" y1="32.603" x2="129.001" y2="29.924"/>
				
					<line style="fill:none;stroke:#D2F5EF;stroke-width:2.0563;stroke-linecap:round;stroke-linejoin:round;stroke-miterlimit:10;" x1="128.734" y1="38.426" x2="132.523" y2="38.426"/>
				
					<line style="fill:none;stroke:#D2F5EF;stroke-width:2.0563;stroke-linecap:round;stroke-linejoin:round;stroke-miterlimit:10;" x1="126.322" y1="44.249" x2="129.001" y2="46.928"/>
				
					<line style="fill:none;stroke:#D2F5EF;stroke-width:2.0563;stroke-linecap:round;stroke-linejoin:round;stroke-miterlimit:10;" x1="120.499" y1="46.661" x2="120.499" y2="50.45"/>
				
					<line style="fill:none;stroke:#D2F5EF;stroke-width:2.0563;stroke-linecap:round;stroke-linejoin:round;stroke-miterlimit:10;" x1="114.676" y1="44.249" x2="111.997" y2="46.928"/>
				
					<line style="fill:none;stroke:#D2F5EF;stroke-width:2.0563;stroke-linecap:round;stroke-linejoin:round;stroke-miterlimit:10;" x1="112.264" y1="38.426" x2="108.475" y2="38.426"/>
				
					<line style="fill:none;stroke:#D2F5EF;stroke-width:2.0563;stroke-linecap:round;stroke-linejoin:round;stroke-miterlimit:10;" x1="114.676" y1="32.603" x2="111.997" y2="29.924"/>
			</g>
			<g>
				<g>
					
						<line style="fill:none;stroke:#D2F5EF;stroke-width:4.0748;stroke-miterlimit:10;" x1="285.061" y1="12.095" x2="298.013" y2="25.047"/>
					
						<line style="fill:none;stroke:#D2F5EF;stroke-width:4.0748;stroke-miterlimit:10;" x1="298.013" y1="12.095" x2="285.061" y2="25.047"/>
				</g>
				<g>
					
						<line style="fill:none;stroke:#D2F5EF;stroke-width:4.0748;stroke-miterlimit:10;" x1="516.333" y1="300.47" x2="529.285" y2="313.422"/>
					
						<line style="fill:none;stroke:#D2F5EF;stroke-width:4.0748;stroke-miterlimit:10;" x1="529.285" y1="300.47" x2="516.333" y2="313.422"/>
				</g>
				<g>
					
						<line style="fill:none;stroke:#D2F5EF;stroke-width:4.0748;stroke-miterlimit:10;" x1="285.061" y1="40.452" x2="298.013" y2="53.404"/>
					
						<line style="fill:none;stroke:#D2F5EF;stroke-width:4.0748;stroke-miterlimit:10;" x1="298.013" y1="40.452" x2="285.061" y2="53.404"/>
				</g>
				<g>
					
						<line style="fill:none;stroke:#D2F5EF;stroke-width:4.0748;stroke-miterlimit:10;" x1="285.061" y1="68.81" x2="298.013" y2="81.761"/>
					
						<line style="fill:none;stroke:#D2F5EF;stroke-width:4.0748;stroke-miterlimit:10;" x1="298.013" y1="68.81" x2="285.061" y2="81.761"/>
				</g>
			</g>
			<path style="fill:#FFFFFF;" d="M142.041,346.034v158.835h-35.512V349.877c0-5.383-0.658-10.768-2.245-15.912
				c-6.743-21.846-27.082-37.714-51.145-37.714c-28.299,0-51.454,21.963-53.38,49.784h-35.522
				c1.966-47.42,41.002-85.265,88.902-85.265S140.075,298.614,142.041,346.034z"/>
			<path style="fill:#FFFFFF;" d="M628.091,135.562h158.835V100.05H631.933c-5.383,0-10.768-0.658-15.912-2.245
				c-21.846-6.743-37.714-27.081-37.714-51.145c0-28.299,21.963-51.454,49.784-53.38v-35.522
				c-47.42,1.966-85.265,41.002-85.265,88.901S580.671,133.596,628.091,135.562z"/>
			
				<ellipse transform="matrix(0.2322 -0.9727 0.9727 0.2322 233.2645 404.3727)" style="fill:#FED047;" cx="372.756" cy="54.44" rx="24.233" ry="24.233"/>
		</g>
	</g>
</g>
</svg>
